<svg width="1920" height="1080" viewBox="0 0 1920 1080" fill="none" xmlns="http://www.w3.org/2000/svg">
<g clip-path="url(#clip0_104_2340)">
<rect width="1920" height="1080" fill="#F3C73D"/>
<path d="M563 1394C953.466 1394 1270 1077.47 1270 687C1270 296.535 953.466 -20 563 -20C172.535 -20 -144 296.535 -144 687C-144 1077.47 172.535 1394 563 1394Z" fill="#FCF9F5" fill-opacity="0.1"/>
<path d="M388.615 195.975C383.808 208.006 377.228 211.422 364.504 210.797C350.992 210.139 347.359 203.481 345.85 192.219C343.56 174.409 334.189 168.316 316.428 174.144C302.434 178.769 288.058 183.059 273.519 185.107C253.064 187.963 248.774 198.835 255.648 215.951C260.677 228.36 257.231 235.117 245.77 241.931C236.273 247.538 230.839 246.515 222.967 240.02C201.061 222.022 200.725 222.404 182.165 244.682C175.714 252.39 169.356 260.267 162.834 267.896C143.024 291.142 143.327 290.818 164.561 313.03C168.216 316.863 170.679 325.147 169.127 329.89C167.517 334.599 160.428 340.29 155.371 340.673C121.136 343.138 121.072 342.718 117.659 376.298C116.959 382.951 116.478 389.691 115.63 396.334C111.818 427.154 111.694 427.965 142.627 432.607C155.807 434.569 156.047 442.914 157.866 452.246C159.57 460.782 162.558 467.759 151.8 474.288C124.886 490.638 125.308 491.303 141.08 517.652C143.518 521.666 145.911 525.691 148.27 529.774C169.866 567.688 169.879 567.734 209.275 549.108C223.9 562.64 246.407 572.165 229.532 599.825C223.104 610.346 231.47 617.049 241.384 620.809C256.439 626.497 272.179 630.932 286.36 638.264C303.164 647.032 312.648 643.373 318.413 625.835C321.734 615.709 324.921 607.078 340.18 607.899C355.703 608.795 359.483 616.727 361.54 628.765C364.499 646.347 374.834 650.043 390.784 645.089C403.592 641.122 416.725 638.186 429.703 634.855C456.386 627.997 457.657 626.927 450.479 601.045C447.374 589.822 449.804 584.358 459.534 578.349C469.793 571.954 476.476 572.01 485.849 580.29C505.498 597.678 506.569 596.953 523.759 576.646C532.897 565.885 541.178 554.285 551.083 544.388C563.589 531.849 562.738 521.772 548.806 511.554C540.98 505.776 529.001 499.215 538.602 488.184C543.515 482.541 555.264 480.074 563.553 480.672C578.703 481.814 586.43 478.14 587.188 461.895C587.81 447.145 590.465 432.531 592.024 417.822C594.883 391.438 594.803 390.779 568.565 387.31C556.921 385.812 551.685 381.527 548.861 369.354C545.244 354.038 551.018 346.707 563.425 341.243C578.253 334.645 581.846 325.71 571.813 311.336C562.645 298.189 554.363 284.172 547.509 269.675C539.746 253.235 529.789 252.403 515.598 261.018C509.694 264.593 501.68 269.56 496.216 268.059C477.568 262.944 468.627 243.563 476.462 225.033C483.025 209.566 477.233 202.66 463.436 197.85C450.12 193.203 437.056 187.856 424.003 182.555C398.965 172.299 398.286 171.946 388.615 195.975ZM521.105 425.061C520.444 431.314 519.462 437.459 518.102 443.462C519.184 437.874 520.06 432.244 520.603 426.459C524.786 383.582 512.495 342.98 488.839 310.82C512.949 342.859 525.576 383.079 521.105 425.061ZM478.373 421.976C471.691 490.217 410.921 540.236 342.566 533.614C274.212 526.993 224.211 466.26 230.881 397.973C237.551 329.687 298.333 279.714 366.733 286.323C435.1 292.99 485.056 353.735 478.373 421.976Z" fill="#FCF9F5" fill-opacity="0.2"/>
<path d="M798.017 876C798.017 876 791.446 460.458 1037.52 167.864C1283.6 -124.73 1689.19 -184 1689.19 -184C1689.19 -184 1715.47 233.665 1469.39 526.422C1223.31 819.179 798.017 876 798.017 876Z" fill="#FCF9F5" fill-opacity="0.1"/>
</g>
<defs>
<clipPath id="clip0_104_2340">
<rect width="1920" height="1080" fill="white"/>
</clipPath>
</defs>
</svg>
