<svg width="1396" height="914" viewBox="0 0 1396 914" fill="none" xmlns="http://www.w3.org/2000/svg">
<path d="M1361.58 277.057C1352.8 270.503 1351.45 264.386 1354.75 254.137C1358.24 243.253 1364.48 241.744 1374.01 242.975C1389.06 245.001 1396.09 238.685 1395.22 222.916C1394.5 210.482 1394.15 197.811 1395.65 185.497C1397.8 168.178 1389.86 162.299 1374.37 164.166C1363.13 165.556 1358.36 161.266 1355.31 150.422C1352.8 141.444 1354.83 137.234 1361.86 132.229C1381.36 118.286 1381.12 117.929 1366.98 97.9085C1362.1 90.957 1357.05 84.0453 1352.25 77.0541C1337.59 55.8025 1337.79 56.1203 1315 68.5932C1311.06 70.7382 1303.76 70.9368 1300.22 68.6329C1296.73 66.2893 1293.63 59.2584 1294.42 55.0478C1299.91 26.5667 1300.26 26.6064 1273.57 16.4771C1268.29 14.4513 1262.89 12.5843 1257.65 10.4393C1233.31 0.588078 1232.67 0.310018 1222.11 24.5408C1217.62 34.8687 1210.75 33.2401 1202.73 32.684C1195.38 32.2073 1189.02 33.1209 1186.05 22.9122C1178.58 -2.62944 1177.94 -2.43084 1152.96 4.6795C1149.15 5.79174 1145.34 6.86425 1141.49 7.89704C1105.78 17.2319 1105.75 17.2318 1112.34 53.4589C1098.08 62.4362 1085.37 78.7224 1066.47 58.9009C1059.28 51.3536 1051.97 56.7161 1046.73 63.9854C1038.79 75.0282 1031.72 86.9053 1022.62 96.8757C1011.78 108.673 1012.7 117.214 1025.76 125.754C1033.31 130.68 1039.66 135.168 1035.65 147.443C1031.52 159.915 1024.21 161.266 1013.93 160.313C998.915 158.883 993.633 166.509 994.189 180.611C994.626 191.932 994.15 203.293 994.031 214.613C993.792 237.891 994.388 239.162 1017.1 238.963C1026.95 238.884 1030.88 242.062 1033.66 251.317C1036.64 261.089 1035.13 266.531 1026.32 272.37C1007.81 284.605 1008.17 285.637 1021 304.109C1027.79 313.92 1035.45 323.215 1041.37 333.464C1048.88 346.413 1057.29 347.923 1068.69 338.786C1075.13 333.662 1083.11 325.32 1090.02 335.569C1093.55 340.812 1093 350.941 1090.69 357.575C1086.44 369.69 1087.75 376.801 1100.86 380.972C1112.77 384.706 1124.13 390.068 1135.81 394.557C1156.74 402.66 1157.29 402.74 1165.87 382.084C1169.64 372.908 1174.29 369.571 1184.85 369.929C1198.16 370.326 1202.88 376.642 1204.63 387.963C1206.78 401.508 1213.29 406.394 1227.23 401.349C1239.98 396.742 1253.24 393.047 1266.59 390.624C1281.72 387.883 1284.58 379.939 1280.64 366.473C1279.02 360.872 1276.71 353.245 1279.13 349.114C1287.4 335.013 1305.19 331.954 1318.61 342.401C1329.81 351.14 1336.72 347.923 1343.67 337.714C1350.38 327.863 1357.61 318.369 1364.8 308.875C1378.66 290.682 1379.09 290.206 1361.58 277.057ZM1145.42 335.092C1140.45 333.185 1135.65 331.04 1131.04 328.617C1135.37 330.723 1139.78 332.669 1144.39 334.377C1178.5 347.168 1214.36 346.016 1245.82 333.742C1214.36 346.413 1178.74 347.923 1145.42 335.092ZM1157.29 300.891C1103 280.513 1075.44 219.976 1095.82 165.636C1116.19 111.295 1176.75 83.7672 1231.08 104.145C1285.41 124.523 1312.93 185.06 1292.56 239.44C1272.15 293.781 1211.58 321.269 1157.29 300.891Z" fill="#7A66FD"/>
<path d="M128.231 913.015C199.05 913.015 256.461 855.592 256.461 784.756C256.461 713.92 199.05 656.497 128.231 656.497C57.4108 656.497 0 713.92 0 784.756C0 855.592 57.4108 913.015 128.231 913.015Z" fill="#EDB71E"/>
<path d="M128.514 883.996C183.157 883.996 227.454 839.689 227.454 785.034C227.454 730.378 183.157 686.072 128.514 686.072C73.8712 686.072 29.5742 730.378 29.5742 785.034C29.5742 839.689 73.8712 883.996 128.514 883.996Z" fill="#F3C73D"/>
</svg>
