<svg width="255" height="256" viewBox="0 0 255 256" fill="none" xmlns="http://www.w3.org/2000/svg">
<path d="M233.167 175.39C227.599 171.232 226.743 167.352 228.834 160.851C231.051 153.947 235.006 152.989 241.052 153.77C250.599 155.055 255.058 151.049 254.504 141.046C254.05 133.159 253.824 125.121 254.781 117.31C256.141 106.324 251.103 102.595 241.278 103.779C234.149 104.661 231.126 101.94 229.186 95.061C227.599 89.3664 228.884 86.6955 233.343 83.5207C245.712 74.6765 245.561 74.4497 236.593 61.7503C233.494 57.3408 230.295 52.9565 227.247 48.5218C217.951 35.0413 218.077 35.2429 203.617 43.1548C201.123 44.5155 196.488 44.6414 194.246 43.18C192.029 41.6934 190.064 37.2335 190.568 34.5626C194.044 16.4962 194.271 16.5214 177.342 10.0961C173.992 8.81105 170.566 7.62678 167.241 6.26613C151.798 0.0172312 151.395 -0.15915 144.694 15.2111C141.848 21.7624 137.489 20.7293 132.401 20.3766C127.74 20.0742 123.71 20.6537 121.82 14.1781C117.084 -2.02373 116.681 -1.89776 100.836 2.61254C98.4173 3.31806 95.999 3.99839 93.5555 4.65351C70.9083 10.5748 70.883 10.5748 75.0648 33.5547C66.0211 39.2492 57.9598 49.5801 45.9687 37.0067C41.409 32.2192 36.7737 35.6208 33.4484 40.2319C28.4101 47.2367 23.926 54.7707 18.1572 61.0952C11.2799 68.5787 11.8594 73.9961 20.1474 79.4135C24.9338 82.538 28.9644 85.3853 26.42 93.1712C23.8001 101.083 19.1648 101.94 12.6402 101.335C3.11782 100.428 -0.232577 105.266 0.120104 114.211C0.397211 121.392 0.0949679 128.598 0.0193934 135.78C-0.131756 150.545 0.246112 151.351 14.6557 151.225C20.9031 151.175 23.3971 153.191 25.1605 159.062C27.0498 165.26 26.0926 168.712 20.5001 172.416C8.76086 180.177 8.98752 180.832 17.1244 192.549C21.4321 198.773 26.2941 204.669 30.0476 211.17C34.8088 219.384 40.1494 220.341 47.3794 214.546C51.4604 211.296 56.5239 206.004 60.9072 212.505C63.1493 215.831 62.7965 222.256 61.3354 226.464C58.6399 234.149 59.4713 238.66 67.7845 241.305C75.3419 243.674 82.5466 247.076 89.9529 249.923C103.229 255.063 103.582 255.113 109.023 242.011C111.416 236.19 114.364 234.074 121.065 234.301C129.504 234.553 132.501 238.559 133.61 245.74C134.97 254.332 139.102 257.432 147.944 254.232C156.03 251.309 164.444 248.965 172.909 247.428C182.507 245.69 184.32 240.65 181.826 232.108C180.794 228.556 179.332 223.718 180.869 221.097C186.109 212.152 197.395 210.212 205.91 216.839C213.014 222.382 217.397 220.341 221.805 213.866C226.063 207.617 230.648 201.595 235.207 195.572C243.999 184.032 244.276 183.73 233.167 175.39ZM96.0494 212.203C92.9005 210.993 89.8523 209.633 86.9301 208.095C89.676 209.431 92.4722 210.666 95.3944 211.749C117.034 219.863 139.782 219.132 159.733 211.346C139.782 219.384 117.185 220.341 96.0494 212.203ZM103.582 190.508C69.1449 177.582 51.662 139.181 64.5852 104.712C77.5085 70.2418 115.926 52.7801 150.388 65.7063C184.849 78.6324 202.307 117.033 189.384 151.528C176.435 185.998 138.018 203.434 103.582 190.508Z" fill="#28183D"/>
</svg>
