<svg width="1920" height="3486" viewBox="0 0 1920 3486" fill="none" xmlns="http://www.w3.org/2000/svg">
<path d="M2325.46 3041.52C2305.94 3026.91 2302.93 3013.27 2310.26 2990.42C2318.04 2966.15 2331.9 2962.78 2353.1 2965.53C2386.57 2970.05 2402.2 2955.96 2400.26 2920.8C2398.67 2893.08 2397.88 2864.82 2401.23 2837.36C2406 2798.75 2388.34 2785.64 2353.89 2789.8C2328.9 2792.9 2318.3 2783.34 2311.5 2759.16C2305.94 2739.14 2310.44 2729.75 2326.07 2718.59C2369.44 2687.5 2368.91 2686.7 2337.47 2642.06C2326.6 2626.56 2315.39 2611.15 2304.7 2595.56C2272.11 2548.18 2272.55 2548.88 2221.86 2576.7C2213.11 2581.48 2196.86 2581.92 2189 2576.78C2181.23 2571.56 2174.34 2555.88 2176.11 2546.49C2188.3 2482.99 2189.09 2483.08 2129.74 2460.49C2117.99 2455.97 2105.98 2451.81 2094.33 2447.03C2040.19 2425.06 2038.77 2424.44 2015.28 2478.47C2005.3 2501.5 1990.02 2497.87 1972.18 2496.63C1955.84 2495.56 1941.71 2497.6 1935.09 2474.84C1918.48 2417.89 1917.07 2418.33 1861.52 2434.18C1853.04 2436.66 1844.56 2439.06 1835.99 2441.36C1756.6 2462.17 1756.51 2462.17 1771.17 2542.95C1739.46 2562.97 1711.2 2599.28 1669.16 2555.08C1653.18 2538.26 1636.92 2550.21 1625.27 2566.42C1607.6 2591.05 1591.88 2617.53 1571.66 2639.76C1547.55 2666.07 1549.58 2685.11 1578.63 2704.15C1595.41 2715.13 1609.55 2725.14 1600.63 2752.51C1591.44 2780.32 1575.19 2783.34 1552.32 2781.21C1518.93 2778.02 1507.18 2795.03 1508.42 2826.47C1509.39 2851.71 1508.33 2877.05 1508.07 2902.29C1507.54 2954.19 1508.86 2957.03 1559.38 2956.58C1581.28 2956.41 1590.03 2963.49 1596.21 2984.13C1602.83 3005.92 1599.48 3018.05 1579.87 3031.07C1538.71 3058.35 1539.51 3060.66 1568.04 3101.84C1583.14 3123.72 1600.18 3144.44 1613.34 3167.3C1630.04 3196.17 1648.76 3199.54 1674.11 3179.17C1688.41 3167.74 1706.17 3149.14 1721.53 3171.99C1729.39 3183.68 1728.16 3206.27 1723.03 3221.06C1713.58 3248.07 1716.5 3263.93 1745.64 3273.23C1772.14 3281.55 1797.4 3293.51 1823.36 3303.52C1869.91 3321.59 1871.14 3321.77 1890.22 3275.71C1898.61 3255.25 1908.95 3247.81 1932.44 3248.61C1962.02 3249.49 1972.53 3263.57 1976.42 3288.82C1981.19 3319.02 1995.67 3329.92 2026.67 3318.67C2055.02 3308.39 2084.52 3300.16 2114.2 3294.75C2147.85 3288.64 2154.21 3270.93 2145.46 3240.9C2141.84 3228.41 2136.72 3211.41 2142.11 3202.19C2160.48 3170.75 2200.04 3163.93 2229.89 3187.23C2254.8 3206.71 2270.17 3199.54 2285.62 3176.77C2300.55 3154.81 2316.62 3133.64 2332.61 3112.47C2363.43 3071.9 2364.4 3070.84 2325.46 3041.52ZM1844.74 3170.93C1833.7 3166.68 1823.01 3161.89 1812.77 3156.49C1822.39 3161.19 1832.2 3165.53 1842.44 3169.33C1918.31 3197.85 1998.06 3195.29 2068.01 3167.92C1998.06 3196.17 1918.84 3199.54 1844.74 3170.93ZM1871.15 3094.67C1750.41 3049.23 1689.12 2914.25 1734.43 2793.08C1779.74 2671.91 1914.42 2610.53 2035.24 2655.97C2156.06 2701.41 2217.27 2836.39 2171.96 2957.65C2126.56 3078.81 1991.88 3140.1 1871.15 3094.67Z" fill="#FCF9F5" fill-opacity="0.2"/>
<path d="M1936.38 1983.86C1911.75 1965.42 1907.96 1948.22 1917.21 1919.38C1927.02 1888.76 1944.51 1884.52 1971.26 1887.98C2013.49 1893.68 2033.21 1875.91 2030.76 1831.55C2028.75 1796.57 2027.75 1760.92 2031.99 1726.28C2038 1677.55 2015.72 1661.01 1972.26 1666.27C1940.72 1670.18 1927.35 1658.11 1918.77 1627.6C1911.75 1602.35 1917.43 1590.5 1937.16 1576.42C1991.87 1537.19 1991.2 1536.19 1951.53 1479.87C1937.83 1460.31 1923.67 1440.87 1910.19 1421.2C1869.07 1361.41 1869.63 1362.3 1805.67 1397.39C1794.64 1403.43 1774.13 1403.99 1764.22 1397.51C1754.41 1390.91 1745.72 1371.13 1747.95 1359.29C1763.32 1279.16 1764.33 1279.27 1689.45 1250.78C1674.63 1245.08 1659.47 1239.83 1644.76 1233.79C1576.46 1206.08 1574.67 1205.29 1545.03 1273.46C1532.44 1302.52 1513.16 1297.94 1490.65 1296.37C1470.04 1295.03 1452.21 1297.6 1443.85 1268.88C1422.9 1197.02 1421.12 1197.58 1351.03 1217.59C1340.33 1220.72 1329.64 1223.73 1318.83 1226.64C1218.65 1252.9 1218.54 1252.9 1237.04 1354.82C1197.03 1380.07 1161.38 1425.89 1108.34 1370.13C1088.17 1348.89 1067.66 1363.98 1052.95 1384.43C1030.67 1415.5 1010.83 1448.91 985.315 1476.96C954.895 1510.15 957.458 1534.18 994.119 1558.2C1015.29 1572.06 1033.12 1584.69 1021.86 1619.22C1010.28 1654.31 989.773 1658.11 960.912 1655.43C918.791 1651.4 903.971 1672.86 905.531 1712.53C906.757 1744.38 905.42 1776.34 905.086 1808.19C904.417 1873.68 906.089 1877.25 969.827 1876.69C997.462 1876.47 1008.49 1885.41 1016.29 1911.45C1024.65 1938.94 1020.42 1954.25 995.679 1970.68C943.752 2005.1 944.755 2008 980.747 2059.97C999.802 2087.57 1021.31 2113.72 1037.91 2142.55C1058.97 2178.98 1082.59 2183.23 1114.58 2157.52C1132.63 2143.11 1155.02 2119.64 1174.41 2148.47C1184.33 2163.22 1182.77 2191.72 1176.31 2210.38C1164.38 2244.47 1168.06 2264.47 1204.83 2276.2C1238.26 2286.71 1270.13 2301.8 1302.89 2314.42C1361.62 2337.22 1363.18 2337.44 1387.25 2279.33C1397.83 2253.52 1410.87 2244.13 1440.51 2245.14C1477.84 2246.26 1491.1 2264.02 1496 2295.87C1502.02 2333.98 1520.29 2347.72 1559.41 2333.53C1595.18 2320.57 1632.39 2310.18 1669.84 2303.36C1712.29 2295.65 1720.31 2273.3 1709.28 2235.42C1704.71 2219.66 1698.25 2198.2 1705.05 2186.58C1728.22 2146.91 1778.15 2138.3 1815.81 2167.69C1847.23 2192.28 1866.62 2183.23 1886.12 2154.51C1904.95 2126.79 1925.23 2100.08 1945.4 2073.38C1984.29 2022.19 1985.52 2020.85 1936.38 1983.86ZM1329.86 2147.13C1315.93 2141.77 1302.45 2135.73 1289.52 2128.92C1301.67 2134.84 1314.04 2140.32 1326.96 2145.12C1422.68 2181.1 1523.3 2177.86 1611.56 2143.33C1523.3 2178.98 1423.35 2183.23 1329.86 2147.13ZM1363.18 2050.91C1210.85 1993.59 1133.52 1823.28 1190.68 1670.4C1247.85 1517.53 1417.78 1440.08 1570.22 1497.41C1722.65 1554.74 1799.87 1725.05 1742.71 1878.04C1685.44 2030.91 1515.5 2108.24 1363.18 2050.91Z" fill="#FCF9F5" fill-opacity="0.2"/>
<path d="M630.377 3130.86C605.751 3112.42 601.962 3095.22 611.211 3066.38C621.017 3035.76 638.512 3031.52 665.255 3034.98C707.487 3040.68 727.21 3022.91 724.759 2978.55C722.753 2943.57 721.751 2907.92 725.985 2873.28C732.002 2824.55 709.716 2808.01 666.258 2813.27C634.723 2817.18 621.351 2805.11 612.771 2774.6C605.751 2749.35 611.434 2737.5 631.157 2723.42C685.87 2684.19 685.201 2683.19 645.532 2626.87C631.826 2607.31 617.674 2587.87 604.191 2568.2C563.073 2508.41 563.63 2509.3 499.669 2544.39C488.637 2550.43 468.134 2550.99 458.217 2544.51C448.411 2537.91 439.719 2518.13 441.947 2506.29C457.325 2426.16 458.328 2426.27 383.446 2397.78C368.626 2392.08 353.472 2386.83 338.763 2380.79C270.456 2353.08 268.673 2352.29 239.033 2420.46C226.441 2449.52 207.163 2444.94 184.654 2443.37C164.04 2442.03 146.211 2444.6 137.853 2415.88C116.904 2344.02 115.121 2344.58 45.0312 2364.59C34.3339 2367.72 23.637 2370.73 12.8282 2373.64C-87.348 2399.9 -87.4597 2399.9 -68.9622 2501.82C-108.966 2527.07 -144.624 2572.89 -197.665 2517.13C-217.834 2495.89 -238.337 2510.98 -253.046 2531.43C-275.332 2562.5 -295.167 2595.91 -320.685 2623.96C-351.105 2657.15 -348.542 2681.18 -311.881 2705.2C-290.709 2719.06 -272.881 2731.69 -284.135 2766.22C-295.724 2801.31 -316.227 2805.11 -345.088 2802.43C-387.209 2798.4 -402.029 2819.86 -400.469 2859.53C-399.243 2891.38 -400.58 2923.34 -400.914 2955.19C-401.583 3020.68 -399.911 3024.25 -336.173 3023.69C-308.538 3023.47 -297.507 3032.41 -289.707 3058.45C-281.349 3085.94 -285.583 3101.25 -310.321 3117.68C-362.248 3152.1 -361.245 3155 -325.253 3206.97C-306.198 3234.57 -284.692 3260.72 -268.089 3289.55C-247.029 3325.98 -223.405 3330.23 -191.425 3304.52C-173.373 3290.11 -150.975 3266.64 -131.586 3295.47C-121.669 3310.22 -123.229 3338.72 -129.692 3357.38C-141.615 3391.47 -137.938 3411.47 -101.166 3423.2C-67.7367 3433.71 -35.8676 3448.8 -3.10696 3461.42C55.617 3484.22 57.1772 3484.44 81.2462 3426.33C91.8321 3400.52 104.87 3391.13 134.51 3392.14C171.84 3393.26 185.1 3411.02 190.003 3442.87C196.02 3480.98 214.295 3494.72 253.407 3480.53C289.176 3467.57 326.394 3457.18 363.835 3450.36C406.29 3442.65 414.313 3420.3 403.281 3382.42C398.713 3366.66 392.25 3345.2 399.047 3333.58C422.224 3293.91 472.146 3285.3 509.809 3314.69C541.233 3339.28 560.622 3330.23 580.122 3301.51C598.954 3273.79 619.234 3247.08 639.403 3220.38C678.292 3169.19 679.518 3167.85 630.377 3130.86ZM23.8598 3294.13C9.93094 3288.77 -3.55212 3282.73 -16.4781 3275.92C-4.33215 3281.84 8.0365 3287.32 20.9625 3292.12C116.681 3328.1 217.303 3324.86 305.556 3290.33C217.303 3325.98 117.35 3330.23 23.8598 3294.13ZM57.1775 3197.91C-95.1484 3140.59 -172.481 2970.28 -115.317 2817.4C-58.1532 2664.53 111.779 2587.08 264.216 2644.41C416.653 2701.74 493.875 2872.05 436.711 3025.04C379.435 3177.91 209.503 3255.24 57.1775 3197.91Z" fill="#FCF9F5" fill-opacity="0.2"/>
<path d="M416.455 1668.52C396.937 1653.91 393.934 1640.27 401.264 1617.42C409.036 1593.15 422.903 1589.78 444.099 1592.53C477.572 1597.05 493.204 1582.96 491.261 1547.8C489.671 1520.08 488.877 1491.82 492.233 1464.36C497.002 1425.75 479.338 1412.64 444.894 1416.8C419.899 1419.9 409.301 1410.34 402.501 1386.16C396.937 1366.14 401.441 1356.75 417.074 1345.59C460.438 1314.5 459.908 1313.7 428.466 1269.06C417.603 1253.56 406.387 1238.15 395.7 1222.56C363.111 1175.18 363.552 1175.88 312.857 1203.7C304.114 1208.48 287.864 1208.92 280.003 1203.78C272.231 1198.56 265.342 1182.88 267.108 1173.49C279.296 1109.99 280.091 1110.08 220.741 1087.49C208.995 1082.97 196.984 1078.81 185.326 1074.03C131.187 1052.06 129.774 1051.44 106.281 1105.47C96.3009 1128.5 81.0218 1124.87 63.1814 1123.63C46.8425 1122.56 32.7114 1124.6 26.0875 1101.84C9.48364 1044.89 8.07043 1045.33 -47.4819 1061.18C-55.9604 1063.66 -64.4386 1066.06 -73.0055 1068.36C-152.404 1089.17 -152.492 1089.17 -137.831 1169.95C-169.538 1189.97 -197.8 1226.28 -239.839 1182.08C-255.825 1165.26 -272.076 1177.21 -283.734 1193.42C-301.397 1218.05 -317.118 1244.53 -337.343 1266.76C-361.454 1293.07 -359.422 1312.11 -330.366 1331.15C-313.585 1342.13 -299.454 1352.14 -308.374 1379.51C-317.56 1407.32 -333.81 1410.34 -356.685 1408.21C-390.069 1405.02 -401.815 1422.03 -400.579 1453.47C-399.607 1478.71 -400.667 1504.05 -400.932 1529.29C-401.462 1581.19 -400.137 1584.03 -349.619 1583.58C-327.716 1583.41 -318.973 1590.49 -312.79 1611.13C-306.166 1632.92 -309.522 1645.05 -329.129 1658.07C-370.285 1685.35 -369.491 1687.66 -340.964 1728.84C-325.862 1750.72 -308.816 1771.44 -295.657 1794.3C-278.964 1823.17 -260.241 1826.54 -234.893 1806.17C-220.586 1794.74 -202.834 1776.14 -187.466 1798.99C-179.606 1810.68 -180.843 1833.27 -185.965 1848.06C-195.415 1875.07 -192.501 1890.93 -163.356 1900.23C-136.86 1908.55 -111.601 1920.51 -85.6355 1930.52C-39.0917 1948.59 -37.8552 1948.77 -18.7784 1902.71C-10.3881 1882.25 -0.0545959 1874.81 23.4381 1875.61C53.0248 1876.49 63.5345 1890.57 67.4205 1915.82C72.1897 1946.02 86.674 1956.92 117.674 1945.67C146.024 1935.39 175.523 1927.16 205.198 1921.75C238.847 1915.64 245.206 1897.93 236.462 1867.9C232.841 1855.41 227.719 1838.41 233.106 1829.19C251.476 1797.75 291.043 1790.93 320.895 1814.23C345.8 1833.71 361.168 1826.54 376.624 1803.77C391.549 1781.81 407.623 1760.64 423.609 1739.47C454.432 1698.9 455.404 1697.84 416.455 1668.52ZM-64.2621 1797.93C-75.3018 1793.68 -85.9884 1788.89 -96.2333 1783.49C-86.6066 1788.19 -76.8034 1792.53 -66.5584 1796.33C9.30713 1824.85 89.0585 1822.29 159.007 1794.92C89.0585 1823.17 9.83716 1826.54 -64.2621 1797.93ZM-37.8549 1721.67C-158.586 1676.23 -219.879 1541.25 -174.572 1420.08C-129.264 1298.91 5.42126 1237.53 126.241 1282.97C247.061 1328.41 308.265 1463.39 262.958 1584.65C217.562 1705.81 82.8764 1767.1 -37.8549 1721.67Z" fill="#FCF9F5" fill-opacity="0.2"/>
<path d="M2223.46 648.524C2203.94 633.909 2200.93 620.269 2208.26 597.418C2216.04 573.149 2229.9 569.783 2251.1 572.529C2284.57 577.046 2300.2 562.963 2298.26 527.8C2296.67 500.077 2295.88 471.822 2299.23 444.365C2304 405.747 2286.34 392.638 2251.89 396.801C2226.9 399.901 2216.3 390.336 2209.5 366.155C2203.94 346.138 2208.44 336.749 2224.07 325.589C2267.44 294.5 2266.91 293.703 2235.47 249.063C2224.6 233.563 2213.39 218.151 2202.7 202.562C2170.11 155.176 2170.55 155.885 2119.86 183.696C2111.11 188.479 2094.86 188.922 2087 183.785C2079.23 178.559 2072.34 162.882 2074.11 153.493C2086.3 89.9869 2087.09 90.0754 2027.74 67.4895C2015.99 62.9723 2003.98 58.8094 1992.33 54.0265C1938.19 32.0606 1936.77 31.4406 1913.28 85.4697C1903.3 108.498 1888.02 104.867 1870.18 103.627C1853.84 102.564 1839.71 104.601 1833.09 81.8382C1816.48 24.8862 1815.07 25.3291 1759.52 41.1835C1751.04 43.6635 1742.56 46.055 1733.99 48.3579C1654.6 69.1724 1654.51 69.1724 1669.17 149.95C1637.46 169.968 1609.2 206.282 1567.16 162.085C1551.18 145.256 1534.92 157.213 1523.27 173.422C1505.6 198.045 1489.88 224.528 1469.66 246.76C1445.55 273.066 1447.58 292.109 1476.63 311.152C1493.41 322.135 1507.55 332.144 1498.63 359.512C1489.44 387.324 1473.19 390.336 1450.32 388.21C1416.93 385.021 1405.18 402.027 1406.42 433.47C1407.39 458.713 1406.33 484.045 1406.07 509.288C1405.54 561.192 1406.86 564.026 1457.38 563.583C1479.28 563.406 1488.03 570.492 1494.21 591.129C1500.83 612.918 1497.48 625.052 1477.87 638.072C1436.71 665.353 1437.51 667.656 1466.04 708.842C1481.14 730.719 1498.18 751.445 1511.34 774.297C1528.04 803.171 1546.76 806.537 1572.11 786.165C1586.41 774.739 1604.17 756.139 1619.53 778.991C1627.39 790.682 1626.16 813.268 1621.03 828.06C1611.58 855.074 1614.5 870.929 1643.64 880.229C1670.14 888.555 1695.4 900.512 1721.36 910.521C1767.91 928.59 1769.14 928.767 1788.22 882.709C1796.61 862.249 1806.95 854.809 1830.44 855.606C1860.02 856.492 1870.53 870.575 1874.42 895.818C1879.19 926.021 1893.67 936.915 1924.67 925.667C1953.02 915.392 1982.52 907.155 2012.2 901.752C2045.85 895.641 2052.21 877.926 2043.46 847.9C2039.84 835.411 2034.72 818.406 2040.11 809.194C2058.48 777.751 2098.04 770.931 2127.89 794.225C2152.8 813.711 2168.17 806.537 2183.62 783.774C2198.55 761.808 2214.62 740.639 2230.61 719.47C2261.43 678.904 2262.4 677.841 2223.46 648.524ZM1742.74 777.928C1731.7 773.677 1721.01 768.894 1710.77 763.491C1720.39 768.185 1730.2 772.525 1740.44 776.334C1816.31 804.854 1896.06 802.285 1966.01 774.917C1896.06 803.171 1816.84 806.537 1742.74 777.928ZM1769.15 701.667C1648.41 656.23 1587.12 521.246 1632.43 400.079C1677.74 278.912 1812.42 217.531 1933.24 262.969C2054.06 308.406 2115.27 443.39 2069.96 564.646C2024.56 685.813 1889.88 747.105 1769.15 701.667Z" fill="#FCF9F5" fill-opacity="0.2"/>
<path d="M720.455 616.524C700.937 601.909 697.934 588.269 705.264 565.418C713.036 541.149 726.903 537.783 748.099 540.529C781.572 545.046 797.204 530.963 795.261 495.8C793.671 468.077 792.877 439.822 796.233 412.365C801.002 373.747 783.338 360.638 748.894 364.801C723.899 367.901 713.301 358.336 706.501 334.155C700.937 314.138 705.441 304.749 721.074 293.589C764.438 262.5 763.908 261.703 732.466 217.063C721.603 201.563 710.387 186.151 699.7 170.562C667.111 123.176 667.552 123.885 616.857 151.696C608.114 156.479 591.864 156.922 584.003 151.785C576.231 146.559 569.342 130.882 571.108 121.493C583.296 57.9869 584.091 58.0754 524.741 35.4895C512.995 30.9723 500.984 26.8094 489.326 22.0265C435.187 0.0605717 433.774 -0.559433 410.281 53.4697C400.301 76.4985 385.022 72.867 367.181 71.627C350.843 70.5642 336.711 72.6013 330.088 49.8382C313.484 -7.11376 312.07 -6.67093 256.518 9.18351C248.04 11.6635 239.561 14.055 230.994 16.3579C151.596 37.1724 151.508 37.1724 166.169 117.95C134.462 137.968 106.2 174.282 64.1608 130.085C48.1751 113.256 31.9243 125.213 20.2662 141.422C2.60254 166.045 -13.1182 192.528 -33.3431 214.76C-57.4541 241.066 -55.4224 260.109 -26.3656 279.152C-9.58514 290.135 4.54573 300.144 -4.37444 327.512C-13.5596 355.324 -29.8104 358.336 -52.6849 356.21C-86.0693 353.021 -97.8154 370.027 -96.5789 401.47C-95.6074 426.713 -96.6671 452.045 -96.932 477.288C-97.4619 529.192 -96.1372 532.026 -45.619 531.583C-23.716 531.406 -14.9726 538.492 -8.79035 559.129C-2.16647 580.918 -5.52236 593.052 -25.1291 606.072C-66.2855 633.353 -65.4908 635.656 -36.964 676.842C-21.8615 698.719 -4.816 719.445 8.34345 742.297C25.0356 771.171 43.7592 774.537 69.1066 754.165C83.4142 742.739 101.166 724.139 116.534 746.991C124.394 758.682 123.157 781.268 118.035 796.06C108.585 823.074 111.499 838.929 140.644 848.229C167.14 856.555 192.399 868.512 218.364 878.521C264.908 896.59 266.145 896.767 285.222 850.709C293.612 830.249 303.945 822.809 327.438 823.606C357.025 824.492 367.535 838.575 371.421 863.818C376.19 894.021 390.674 904.915 421.674 893.667C450.024 883.392 479.523 875.155 509.198 869.752C542.847 863.641 549.206 845.926 540.462 815.9C536.841 803.412 531.719 786.406 537.106 777.194C555.476 745.751 595.043 738.931 624.895 762.225C649.8 781.711 665.168 774.537 680.624 751.774C695.549 729.808 711.623 708.639 727.609 687.47C758.432 646.904 759.404 645.841 720.455 616.524ZM239.738 745.928C228.698 741.677 218.012 736.894 207.767 731.491C217.393 736.185 227.197 740.525 237.442 744.334C313.307 772.854 393.058 770.285 463.007 742.917C393.058 771.171 313.837 774.537 239.738 745.928ZM266.145 669.667C145.414 624.23 84.1209 489.246 129.428 368.079C174.736 246.912 309.421 185.531 430.241 230.969C551.061 276.406 612.265 411.39 566.958 532.646C521.562 653.813 386.876 715.105 266.145 669.667Z" fill="#FCF9F5" fill-opacity="0.2"/>
</svg>
