<svg width="26" height="43" viewBox="0 0 26 43" fill="none" xmlns="http://www.w3.org/2000/svg">
<path d="M25.0399 41.2909V21.6112C25.0399 20.6707 24.2815 19.9123 23.3411 19.9123H16.8191C15.7472 19.9123 14.9282 18.9313 15.1507 17.8796C15.5147 16.0997 16.2731 13.6423 17.7393 12.4389C19.5492 10.9624 22.0771 10.2342 23.6445 9.94097C24.4534 9.78928 25.05 9.09149 25.05 8.26223V1.69896C25.05 0.758466 24.2916 0 23.3512 0H13.735C11.925 0 10.1656 0.637112 8.80048 1.82032C7.36461 3.06421 5.76694 4.72272 4.29063 6.89699C1.78293 10.5882 0.761654 14.1176 0.316739 16.2716C0.0740577 17.647 -1.40223 26.8699 5.01871 34.7378C11.0453 42.1202 19.6908 42.9899 23.3614 43C24.2815 43 25.0399 42.2314 25.0399 41.2909Z" fill="#EDB71E"/>
</svg>
