<svg width="26" height="43" viewBox="0 0 26 43" fill="none" xmlns="http://www.w3.org/2000/svg">
<path d="M0.178089 1.71919V21.3989C0.178089 22.3394 0.936378 23.0978 1.87666 23.0978H8.39802C9.46975 23.0978 10.2887 24.0788 10.0662 25.1305C9.70225 26.9104 8.94396 29.3678 7.47792 30.5712C5.66812 32.0477 3.1405 32.7759 1.57336 33.0691C0.76451 33.2208 0.167969 33.9186 0.167969 34.7479V41.301C0.167969 42.2415 0.926257 43 1.86654 43H11.4817C13.2915 43 15.0508 42.3629 16.4157 41.1797C17.8514 39.9358 19.4489 38.2773 20.925 36.103C23.4325 32.4118 24.4536 28.8824 24.8985 26.7284C25.1411 25.353 26.6173 16.1301 20.1971 8.26223C14.1712 0.879821 5.52658 0.0101129 1.85642 0C0.936358 0.0101129 0.178089 0.778693 0.178089 1.71919Z" fill="#12DBB9"/>
</svg>
