<svg width="1920" height="1080" viewBox="0 0 1920 1080" fill="none" xmlns="http://www.w3.org/2000/svg">
<g clip-path="url(#clip0_212_1044)">
<path d="M1920 0H0V1080H1920V0Z" fill="#FCF9F5"/>
<path d="M563 1394C953.466 1394 1270 1077.47 1270 687C1270 296.535 953.466 -20 563 -20C172.535 -20 -144 296.535 -144 687C-144 1077.47 172.535 1394 563 1394Z" fill="#929292" fill-opacity="0.1"/>
<path d="M388.616 195.975C383.809 208.006 377.229 211.422 364.505 210.797C350.993 210.139 347.36 203.481 345.851 192.219C343.561 174.409 334.19 168.316 316.429 174.144C302.435 178.769 288.059 183.059 273.52 185.107C253.065 187.963 248.775 198.835 255.649 215.951C260.678 228.36 257.232 235.117 245.771 241.931C236.274 247.538 230.84 246.515 222.968 240.02C201.062 222.022 200.726 222.404 182.166 244.682C175.715 252.39 169.357 260.267 162.835 267.896C143.025 291.142 143.328 290.818 164.562 313.03C168.217 316.863 170.68 325.147 169.128 329.89C167.518 334.599 160.429 340.29 155.372 340.673C121.137 343.138 121.073 342.718 117.66 376.298C116.96 382.951 116.479 389.691 115.631 396.334C111.819 427.154 111.695 427.965 142.628 432.607C155.808 434.569 156.048 442.914 157.867 452.246C159.571 460.782 162.559 467.759 151.801 474.288C124.887 490.638 125.309 491.303 141.081 517.652C143.519 521.666 145.912 525.691 148.271 529.774C169.867 567.688 169.88 567.734 209.276 549.108C223.901 562.64 246.408 572.165 229.533 599.825C223.105 610.346 231.471 617.049 241.385 620.809C256.44 626.497 272.18 630.932 286.361 638.264C303.165 647.032 312.649 643.373 318.414 625.835C321.735 615.709 324.922 607.078 340.181 607.899C355.704 608.795 359.484 616.727 361.541 628.765C364.5 646.347 374.835 650.043 390.785 645.089C403.593 641.122 416.726 638.186 429.704 634.855C456.387 627.997 457.658 626.927 450.48 601.045C447.375 589.822 449.805 584.358 459.535 578.349C469.794 571.954 476.477 572.01 485.85 580.29C505.499 597.678 506.57 596.953 523.76 576.646C532.898 565.885 541.179 554.285 551.084 544.388C563.59 531.849 562.739 521.772 548.807 511.554C540.981 505.776 529.002 499.215 538.603 488.184C543.516 482.541 555.265 480.074 563.554 480.672C578.704 481.814 586.431 478.14 587.189 461.895C587.811 447.145 590.466 432.531 592.025 417.822C594.884 391.438 594.804 390.779 568.566 387.31C556.922 385.812 551.686 381.527 548.862 369.354C545.245 354.038 551.019 346.707 563.426 341.243C578.254 334.645 581.847 325.71 571.814 311.336C562.646 298.189 554.364 284.172 547.51 269.675C539.747 253.235 529.79 252.403 515.599 261.018C509.695 264.593 501.681 269.56 496.217 268.059C477.569 262.944 468.628 243.563 476.463 225.033C483.026 209.566 477.234 202.66 463.437 197.85C450.121 193.203 437.057 187.856 424.004 182.555C398.966 172.299 398.287 171.946 388.616 195.975ZM521.106 425.061C520.445 431.314 519.463 437.459 518.103 443.462C519.185 437.874 520.061 432.244 520.604 426.459C524.787 383.582 512.496 342.98 488.84 310.82C512.95 342.859 525.577 383.079 521.106 425.061ZM478.374 421.976C471.692 490.217 410.922 540.236 342.567 533.614C274.213 526.993 224.212 466.26 230.882 397.973C237.552 329.687 298.334 279.714 366.734 286.323C435.101 292.99 485.057 353.735 478.374 421.976Z" fill="#D1D1D1" fill-opacity="0.2"/>
<path d="M798.017 876C798.017 876 791.446 460.458 1037.52 167.864C1283.6 -124.73 1689.19 -184 1689.19 -184C1689.19 -184 1715.47 233.665 1469.39 526.422C1223.31 819.179 798.017 876 798.017 876Z" fill="#BBBBBB" fill-opacity="0.1"/>
</g>
<defs>
<clipPath id="clip0_212_1044">
<rect width="1920" height="1080" fill="white"/>
</clipPath>
</defs>
</svg>
